<svg width="122" height="31" fill="none" xmlns="http://www.w3.org/2000/svg"><g filter="url(#a)"><path d="M2.115 28.54v-2.634L15.884 5.76H2V2.358h18.716v2.634L6.948 25.139H20.83v3.4H2.115zm45.182-13.091c0 2.795-.511 5.199-1.534 7.21-1.023 2.003-2.424 3.546-4.206 4.628-1.773 1.074-3.788 1.61-6.047 1.61-2.267 0-4.29-.536-6.072-1.61-1.773-1.082-3.17-2.63-4.193-4.64-1.023-2.012-1.534-4.411-1.534-7.198 0-2.796.511-5.195 1.534-7.198 1.022-2.01 2.42-3.554 4.193-4.627C31.219 2.54 33.243 2 35.51 2c2.259 0 4.275.541 6.047 1.624C43.34 4.697 44.74 6.24 45.763 8.25c1.023 2.003 1.534 4.402 1.534 7.198zm-3.912 0c0-2.13-.345-3.925-1.035-5.382-.682-1.466-1.62-2.574-2.813-3.324-1.184-.759-2.527-1.138-4.027-1.138-1.508 0-2.855.38-4.04 1.138-1.184.75-2.122 1.858-2.812 3.324-.682 1.457-1.023 3.251-1.023 5.382 0 2.13.341 3.929 1.023 5.395.69 1.457 1.628 2.565 2.813 3.324 1.184.75 2.53 1.125 4.04 1.125 1.5 0 2.842-.375 4.026-1.125 1.194-.759 2.131-1.867 2.813-3.324.69-1.466 1.035-3.264 1.035-5.395zm8.16 13.09v-2.633L65.313 5.76H51.43V2.358h18.716v2.634L56.377 25.139h13.884v3.4H51.545zm22.992 0v-2.633L88.305 5.76H74.422V2.358h18.716v2.634L79.369 25.139h13.884v3.4H74.537zm45.182-13.09c0 2.795-.511 5.199-1.534 7.21-1.023 2.003-2.425 3.546-4.206 4.628-1.773 1.074-3.788 1.61-6.047 1.61-2.267 0-4.291-.536-6.072-1.61-1.773-1.082-3.17-2.63-4.193-4.64-1.023-2.012-1.535-4.411-1.535-7.198 0-2.796.512-5.195 1.535-7.198 1.022-2.01 2.42-3.554 4.193-4.627C103.641 2.54 105.665 2 107.932 2c2.259 0 4.274.541 6.047 1.624 1.781 1.073 3.183 2.616 4.206 4.627 1.023 2.003 1.534 4.402 1.534 7.198zm-3.912 0c0-2.13-.345-3.925-1.035-5.382-.682-1.466-1.62-2.574-2.813-3.324-1.184-.759-2.527-1.138-4.027-1.138-1.508 0-2.855.38-4.04 1.138-1.184.75-2.122 1.858-2.812 3.324-.682 1.457-1.023 3.251-1.023 5.382 0 2.13.341 3.929 1.023 5.395.69 1.457 1.628 2.565 2.812 3.324 1.185.75 2.532 1.125 4.04 1.125 1.5 0 2.843-.375 4.027-1.125 1.193-.759 2.131-1.867 2.813-3.324.69-1.466 1.035-3.264 1.035-5.395z" fill="#FCDED6"/></g><defs><filter id="a" x="0" y="0" width="121.719" height="30.898" filterUnits="userSpaceOnUse" color-interpolation-filters="sRGB"><feFlood flood-opacity="0" result="BackgroundImageFix"/><feBlend in="SourceGraphic" in2="BackgroundImageFix" result="shape"/><feTurbulence type="fractalNoise" baseFrequency="0.011111111380159855 0.011111111380159855" numOctaves="3" seed="6173"/><feDisplacementMap in="shape" scale="4" xChannelSelector="R" yChannelSelector="G" result="displacedImage"/><feMerge result="effect1_texture_659_885"><feMergeNode in="displacedImage"/></feMerge></filter></defs></svg>