<?xml version="1.0" encoding="UTF-8"?>
<svg id="Calque_1" data-name="Calque 1" xmlns="http://www.w3.org/2000/svg" viewBox="0 0 117.72 26.9">
  <defs>
    <style>
      .cls-1 {
        fill: #fcded6;
      }
    </style>
  </defs>
  <path class="cls-1" d="M.12,26.54v-2.63L13.88,3.76H0V.36h18.72v2.63L4.95,23.14h13.88v3.4H.12ZM45.3,13.45c0,2.8-.51,5.2-1.53,7.21-1.02,2-2.42,3.55-4.21,4.63-1.77,1.07-3.79,1.61-6.05,1.61s-4.29-.54-6.07-1.61c-1.77-1.08-3.17-2.63-4.19-4.64-1.02-2.01-1.53-4.41-1.53-7.2s.51-5.19,1.53-7.2c1.02-2.01,2.42-3.55,4.19-4.63,1.78-1.08,3.81-1.62,6.07-1.62s4.27.54,6.05,1.62c1.78,1.07,3.18,2.62,4.21,4.63,1.02,2,1.53,4.4,1.53,7.2ZM41.39,13.45c0-2.13-.35-3.92-1.04-5.38-.68-1.47-1.62-2.57-2.81-3.32-1.18-.76-2.53-1.14-4.03-1.14s-2.86.38-4.04,1.14c-1.18.75-2.12,1.86-2.81,3.32-.68,1.46-1.02,3.25-1.02,5.38s.34,3.93,1.02,5.39c.69,1.46,1.63,2.57,2.81,3.32,1.18.75,2.53,1.12,4.04,1.12s2.84-.38,4.03-1.12c1.19-.76,2.13-1.87,2.81-3.32.69-1.47,1.04-3.26,1.04-5.39ZM49.54,26.54v-2.63L63.31,3.76h-13.88V.36h18.72v2.63l-13.77,20.15h13.88v3.4h-18.72ZM72.54,26.54v-2.63l13.77-20.15h-13.88V.36h18.72v2.63l-13.77,20.15h13.88v3.4h-18.72ZM117.72,13.45c0,2.8-.51,5.2-1.53,7.21-1.02,2-2.42,3.55-4.21,4.63-1.77,1.07-3.79,1.61-6.05,1.61s-4.29-.54-6.07-1.61c-1.77-1.08-3.17-2.63-4.19-4.64-1.02-2.01-1.53-4.41-1.53-7.2s.51-5.19,1.53-7.2c1.02-2.01,2.42-3.55,4.19-4.63,1.78-1.08,3.81-1.62,6.07-1.62s4.27.54,6.05,1.62c1.78,1.07,3.18,2.62,4.21,4.63,1.02,2,1.53,4.4,1.53,7.2ZM113.81,13.45c0-2.13-.35-3.92-1.03-5.38-.68-1.47-1.62-2.57-2.81-3.32-1.18-.76-2.53-1.14-4.03-1.14s-2.85.38-4.04,1.14c-1.18.75-2.12,1.86-2.81,3.32-.68,1.46-1.02,3.25-1.02,5.38s.34,3.93,1.02,5.39c.69,1.46,1.63,2.57,2.81,3.32,1.19.75,2.53,1.12,4.04,1.12s2.84-.38,4.03-1.12c1.19-.76,2.13-1.87,2.81-3.32.69-1.47,1.03-3.26,1.03-5.39Z"/>
</svg>